<svg width="17" height="17" viewBox="0 0 17 17" fill="none" xmlns="http://www.w3.org/2000/svg">
<path d="M8.04469 0C9.11148 0 10.1346 0.423781 10.8889 1.17812C11.6433 1.93245 12.067 2.95555 12.067 4.02235C12.067 5.08914 11.6433 6.11224 10.8889 6.86657C10.1346 7.62091 9.11148 8.04469 8.04469 8.04469C6.9779 8.04469 5.9548 7.62091 5.20046 6.86657C4.44613 6.11224 4.02235 5.08914 4.02235 4.02235C4.02235 2.95555 4.44613 1.93245 5.20046 1.17812C5.9548 0.423781 6.9779 0 8.04469 0ZM8.04469 10.0559C12.4894 10.0559 16.0894 11.8559 16.0894 14.0782V16.0894H0V14.0782C0 11.8559 3.6 10.0559 8.04469 10.0559Z" fill="black"/>
</svg>
