<svg width="22" height="23" viewBox="0 0 22 23" fill="none" xmlns="http://www.w3.org/2000/svg">
<path d="M16.4999 14.4515H14.6666V16.2848H16.4999M16.4999 10.7848H14.6666V12.6182H16.4999M18.3333 18.1182H10.9999V16.2848H12.8333V14.4515H10.9999V12.6182H12.8333V10.7848H10.9999V8.95151H18.3333M9.16659 7.11817H7.33325V5.28484H9.16659M9.16659 10.7848H7.33325V8.95151H9.16659M9.16659 14.4515H7.33325V12.6182H9.16659M9.16659 18.1182H7.33325V16.2848H9.16659M5.49992 7.11817H3.66659V5.28484H5.49992M5.49992 10.7848H3.66659V8.95151H5.49992M5.49992 14.4515H3.66659V12.6182H5.49992M5.49992 18.1182H3.66659V16.2848H5.49992M10.9999 7.11817V3.45151H1.83325V19.9515H20.1666V7.11817H10.9999Z" fill="black"/>
</svg>
