<svg width="15" height="15" viewBox="0 0 15 15" fill="none" xmlns="http://www.w3.org/2000/svg">
<path d="M10.7021 7.70151C12.6692 7.70151 14.2657 6.13351 14.2657 4.20151C14.2657 2.26951 12.6692 0.701508 10.7021 0.701508C8.735 0.701508 7.13853 2.26951 7.13853 4.20151C7.13853 6.13351 8.735 7.70151 10.7021 7.70151ZM14.5864 11.6215C14.3084 11.3415 13.9592 11.2015 13.5529 11.2015H8.56395L7.08151 10.6905L7.31671 10.0325L8.56395 10.5015H10.5595C10.809 10.5015 11.0086 10.4035 11.1725 10.2425C11.3364 10.0815 11.4148 9.88551 11.4148 9.66851C11.4148 9.29051 11.2295 9.03151 10.8589 8.88451L5.67747 7.00151H4.28768V13.3015L9.27666 14.7015L14.9997 12.6015C15.0069 12.2305 14.8643 11.9015 14.5864 11.6215ZM2.86225 7.00151H0V14.7015H2.86225V7.00151Z" fill="black"/>
</svg>
