<svg width="27" height="15" viewBox="0 0 27 15" fill="none" xmlns="http://www.w3.org/2000/svg">
<path d="M17.7399 1.96779L20.1327 4.45001L25.4872 4.54012C25.6389 4.54228 25.7887 4.57445 25.9279 4.63479C26.0671 4.69512 26.1929 4.78242 26.2982 4.89165C26.4035 5.00087 26.4861 5.12987 26.5413 5.27119C26.5965 5.41251 26.6232 5.56336 26.6198 5.71503L26.5346 9.91551C26.5281 10.2191 26.4018 10.5077 26.1832 10.7184C25.9646 10.9291 25.6715 11.0448 25.3679 11.0401L21.6384 10.9798L15.2577 4.36057L13.6029 5.95575C13.3834 6.16729 13.0889 6.28299 12.7842 6.27739C12.4794 6.2718 12.1894 6.14538 11.9779 5.92594C11.7663 5.7065 11.6506 5.41201 11.6562 5.10726C11.6618 4.80252 11.7882 4.51247 12.0077 4.30094L14.4899 1.90816C14.9288 1.48509 15.5177 1.25369 16.1272 1.26488C16.7367 1.27606 17.3168 1.5289 17.7399 1.96779ZM8.8173 0.991314L5.50767 4.18169L1.78642 4.11342C1.48285 4.10875 1.18976 4.2244 0.971169 4.43512C0.752579 4.64583 0.626254 4.93448 0.619782 5.23802L0.534589 9.4385C0.531185 9.59017 0.557846 9.74102 0.613033 9.88234C0.668221 10.0237 0.750844 10.1527 0.856136 10.2619C0.961428 10.3711 1.0873 10.4584 1.22651 10.5187C1.36571 10.5791 1.51547 10.6113 1.66717 10.6134L8.63842 10.7413L11.8288 14.0509C12.0403 14.2704 12.3304 14.3968 12.6351 14.4024C12.9399 14.408 13.2344 14.2923 13.4538 14.0807L14.2812 13.2832L15.0788 14.1106C15.2903 14.33 15.5804 14.4564 15.8851 14.462C16.1899 14.4676 16.4843 14.3519 16.7038 14.1404L17.5312 13.3428L18.3288 14.1702C18.5403 14.3896 18.8304 14.5161 19.1351 14.5216C19.4399 14.5272 19.7343 14.4115 19.9538 14.2L20.7812 13.4024L15.198 7.61056L14.3706 8.40816C13.9318 8.83123 13.3428 9.06262 12.7333 9.05144C12.1238 9.04026 11.5437 8.78742 11.1206 8.34853L9.52545 6.69372C9.10238 6.25484 8.87099 5.66586 8.88217 5.05637C8.89335 4.44688 9.1462 3.86679 9.58508 3.44372L12.0673 1.05094L8.8173 0.991314Z" fill="black"/>
</svg>
