<svg width="14" height="15" viewBox="0 0 14 15" fill="none" xmlns="http://www.w3.org/2000/svg">
<path id="Vector" d="M7.7 5.60151H6.3V4.20151H7.7M7.7 11.2015H6.3V7.00151H7.7M7 0.701508C6.08075 0.701508 5.17049 0.882568 4.32122 1.23435C3.47194 1.58613 2.70026 2.10175 2.05025 2.75176C0.737498 4.06451 0 5.84499 0 7.70151C0 9.55802 0.737498 11.3385 2.05025 12.6513C2.70026 13.3013 3.47194 13.8169 4.32122 14.1687C5.17049 14.5204 6.08075 14.7015 7 14.7015C8.85651 14.7015 10.637 13.964 11.9497 12.6513C13.2625 11.3385 14 9.55802 14 7.70151C14 6.78225 13.8189 5.872 13.4672 5.02272C13.1154 4.17344 12.5998 3.40177 11.9497 2.75176C11.2997 2.10175 10.5281 1.58613 9.67878 1.23435C8.8295 0.882568 7.91925 0.701508 7 0.701508Z" fill="black"/>
</svg>
