<svg width="18" height="13" viewBox="0 0 18 13" fill="none" xmlns="http://www.w3.org/2000/svg">
<path d="M3.27322 0H18.0005V9.75H3.27322V0ZM10.6369 2.4375C11.2878 2.4375 11.9122 2.69431 12.3725 3.15143C12.8328 3.60855 13.0914 4.22853 13.0914 4.875C13.0914 5.52147 12.8328 6.14145 12.3725 6.59857C11.9122 7.05569 11.2878 7.3125 10.6369 7.3125C9.98587 7.3125 9.36154 7.05569 8.90123 6.59857C8.44091 6.14145 8.18231 5.52147 8.18231 4.875C8.18231 4.22853 8.44091 3.60855 8.90123 3.15143C9.36154 2.69431 9.98587 2.4375 10.6369 2.4375ZM6.54594 1.625C6.54594 2.05598 6.37354 2.4693 6.06666 2.77405C5.75979 3.07879 5.34357 3.25 4.90958 3.25V6.5C5.34357 6.5 5.75979 6.67121 6.06666 6.97595C6.37354 7.2807 6.54594 7.69402 6.54594 8.125H14.7278C14.7278 7.69402 14.9002 7.2807 15.207 6.97595C15.5139 6.67121 15.9301 6.5 16.3641 6.5V3.25C15.9301 3.25 15.5139 3.07879 15.207 2.77405C14.9002 2.4693 14.7278 2.05598 14.7278 1.625H6.54594ZM0.000488281 3.25H1.63685V11.375H14.7278V13H0.000488281V3.25Z" fill="black"/>
</svg>
